<svg width="550" height="200" xmlns="http://www.w3.org/2000/svg" p-id="30273" version="1.1" class="icon" t="1614303238055">
 <defs>
  <style type="text/css"/>
 </defs>
 <g>
  <title>background</title>
  <rect fill="none" id="canvas_background" height="202" width="552" y="-1" x="-1"/>
 </g>
 <g>
  <title>Layer 1</title>
  <text font-style="italic" font-weight="bold" stroke="#000" transform="matrix(0.5933149031566838,0,0,0.9932445899236741,-72.10815799205486,-136.15179303306095) " xml:space="preserve" text-anchor="start" font-family="'Courier New', Courier, monospace" font-size="250" id="svg_4" y="312.682774" x="116.206802" stroke-width="0" fill="#2d80e5">COIN</text>
  <defs>
   <style type="text/css"/>
  </defs>
  <g transform="rotate(-0.22506627440452576 633.7744140625047,57.23212432859024) " stroke="null" id="svg_21">
   <path stroke="null" transform="rotate(-0.22506627440452576 457.67623901367745,79.1504745483375) " id="svg_20" fill="#e05006" p-id="29845" d="m508.109689,19.634783l-101.180335,0.465859a29.170075,24.366683 0 0 0 -28.981075,24.410579l0.150667,44.95698a29.170075,24.366683 0 0 0 29.143796,24.142959l13.777748,-0.063436l12.570458,25.11842l27.621816,-25.303475l47.210314,-0.217368a29.170075,24.366683 0 0 0 28.981075,-24.41058l-0.150667,-44.956979a29.170075,24.366683 0 0 0 -29.143796,-24.142959zm-89.092988,74.140791l-15.069411,0.069383l-0.180801,-53.948375l15.069411,-0.069383l0.180801,53.948375zm92.38844,-54.374587l-12.916639,0.059471l0.060267,17.982791l-21.407196,36.064703l-10.763866,0.049559l-21.648264,-35.866465l0.120534,35.965584l-12.916639,0.059471l-0.180801,-53.948375l17.222184,-0.079295l22.793514,37.137989l24.567493,-37.356051l15.069411,-0.069383z"/>
  </g>
  <text stroke="#000" font-weight="normal" transform="rotate(-0.22506627440452576 507.20138549804864,65.56018066405213) matrix(0.7745622275961878,0,0,0.28847084242621407,-17.788416743830748,57.546749425538856) " xml:space="preserve" text-anchor="start" font-family="Euphoria, sans-serif" font-size="250" id="svg_22" y="116.76842" x="648.421807" stroke-opacity="null" stroke-width="0" fill="#e2d02d">l</text>
 </g>
</svg>